# Blender v2.78 (sub 0) OBJ File: 'kicker.blend'
# www.blender.org
mtllib kicker.mtl
o Kicker_Plane
v -0.992251 0.000000 1.000000
v 1.007749 0.000000 1.000000
v -0.992251 0.000000 -1.000000
v 1.007749 0.000000 -1.000000
v 1.007749 1.000000 1.000000
v 1.007749 1.000000 -1.000000
vn 0.0000 -1.0000 0.0000
vn 1.0000 0.0000 0.0000
vn 0.0000 0.0000 1.0000
vn 0.0000 0.0000 -1.0000
vn -0.4472 0.8944 0.0000
usemtl kicker
s off
f 2//1 1//1 3//1
f 2//2 4//2 6//2
f 2//3 5//3 1//3
f 4//4 3//4 6//4
f 6//5 3//5 1//5
f 2//1 3//1 4//1
f 2//2 6//2 5//2
f 6//5 1//5 5//5
